<svg width="357" height="68" viewBox="0 0 357 68" fill="none" xmlns="http://www.w3.org/2000/svg">
<path d="M87.1027 47.2822C86.226 47.2822 85.4955 47.0387 84.9111 46.5516C84.3591 46.0321 84.0831 45.3016 84.0831 44.36V15.2846C84.0831 14.343 84.3591 13.6287 84.9111 13.1417C85.4955 12.6546 86.226 12.4111 87.1027 12.4111C87.9793 12.4111 88.7099 12.6546 89.2943 13.1417C89.8787 13.6287 90.171 14.343 90.171 15.2846V44.36C90.171 45.3016 89.8787 46.0321 89.2943 46.5516C88.7099 47.0387 87.9793 47.2822 87.1027 47.2822Z" fill="#4A4A4A"/>
<path d="M115.248 22.6874C116.19 22.6874 116.937 22.9471 117.489 23.4666C118.04 23.9861 118.316 24.6842 118.316 25.5608V44.4574C118.316 45.3016 118.024 45.9834 117.44 46.5029C116.888 47.0224 116.157 47.2822 115.248 47.2822C114.372 47.2822 113.673 47.0387 113.154 46.5516C112.635 46.0646 112.375 45.399 112.375 44.5548V43.3373C111.628 44.636 110.621 45.6425 109.355 46.3568C108.089 47.0387 106.66 47.3796 105.069 47.3796C99.2251 47.3796 96.3029 44.1003 96.3029 37.5417V25.5608C96.3029 24.6842 96.5789 23.9861 97.1309 23.4666C97.6828 22.9471 98.4134 22.6874 99.3225 22.6874C100.264 22.6874 101.011 22.9471 101.563 23.4666C102.115 23.9861 102.391 24.6842 102.391 25.5608V37.5904C102.391 39.2787 102.732 40.5287 103.413 41.3405C104.095 42.1522 105.167 42.558 106.628 42.558C108.316 42.558 109.664 42.0061 110.67 40.9021C111.709 39.7657 112.229 38.2722 112.229 36.4215V25.5608C112.229 24.6842 112.505 23.9861 113.057 23.4666C113.609 22.9471 114.339 22.6874 115.248 22.6874Z" fill="#4A4A4A"/>
<path d="M135.221 47.3796C132.851 47.3796 130.757 46.8763 128.939 45.8698C127.153 44.8633 125.773 43.4347 124.799 41.584C123.825 39.7333 123.338 37.5741 123.338 35.1065C123.338 32.6389 123.841 30.4636 124.848 28.5804C125.887 26.6648 127.331 25.1874 129.182 24.1485C131.033 23.1095 133.159 22.59 135.562 22.59C136.828 22.59 138.095 22.7685 139.361 23.1257C140.66 23.4828 141.796 23.9699 142.77 24.5868C143.809 25.2686 144.329 26.129 144.329 27.168C144.329 27.8823 144.15 28.4667 143.793 28.9213C143.468 29.3434 143.03 29.5544 142.478 29.5544C142.121 29.5544 141.747 29.4733 141.358 29.3109C140.968 29.1486 140.578 28.9538 140.189 28.7265C139.475 28.3044 138.793 27.9797 138.143 27.7524C137.494 27.4927 136.747 27.3628 135.903 27.3628C133.89 27.3628 132.332 28.0284 131.228 29.3596C130.156 30.6584 129.62 32.5415 129.62 35.0091C129.62 37.4443 130.156 39.3274 131.228 40.6586C132.332 41.9574 133.89 42.6067 135.903 42.6067C136.715 42.6067 137.429 42.4931 138.046 42.2658C138.695 42.0061 139.41 41.6651 140.189 41.2431C140.676 40.9508 141.098 40.7398 141.455 40.6099C141.812 40.4476 142.169 40.3664 142.527 40.3664C143.046 40.3664 143.484 40.5937 143.842 41.0482C144.199 41.5028 144.377 42.071 144.377 42.7528C144.377 43.3048 144.247 43.7918 143.988 44.2139C143.76 44.6035 143.371 44.9607 142.819 45.2854C141.812 45.9347 140.643 46.4542 139.312 46.8438C137.981 47.201 136.617 47.3796 135.221 47.3796Z" fill="#4A4A4A"/>
<path d="M169.619 42.2658C170.268 42.8827 170.593 43.5808 170.593 44.36C170.593 45.1068 170.317 45.7724 169.765 46.3568C169.246 46.9413 168.629 47.2335 167.914 47.2335C167.2 47.2335 166.534 46.9413 165.918 46.3568L154.521 36.0319V44.36C154.521 45.3016 154.229 46.0159 153.644 46.5029C153.06 46.99 152.33 47.2335 151.453 47.2335C150.576 47.2335 149.846 46.99 149.261 46.5029C148.709 46.0159 148.433 45.3016 148.433 44.36V15.2846C148.433 14.343 148.709 13.6287 149.261 13.1417C149.846 12.6546 150.576 12.4111 151.453 12.4111C152.33 12.4111 153.06 12.6546 153.644 13.1417C154.229 13.6287 154.521 14.343 154.521 15.2846V33.5968L164.943 23.6127C165.528 23.0283 166.194 22.7361 166.94 22.7361C167.687 22.7361 168.336 23.0121 168.888 23.564C169.44 24.116 169.716 24.7654 169.716 25.5121C169.716 26.2589 169.408 26.9407 168.791 27.5576L161.145 34.6682L169.619 42.2658Z" fill="#4A4A4A"/>
<path d="M190.676 24.4407C190.936 23.8562 191.277 23.4341 191.699 23.1744C192.154 22.8822 192.641 22.7361 193.16 22.7361C193.907 22.7361 194.573 22.9958 195.157 23.5153C195.774 24.0023 196.082 24.6192 196.082 25.366C196.082 25.7232 195.985 26.0966 195.79 26.4862L182.494 54.344C181.942 55.448 181.082 55.9999 179.913 55.9999C179.166 55.9999 178.501 55.7564 177.916 55.2694C177.364 54.8148 177.088 54.2304 177.088 53.5161C177.088 53.1589 177.186 52.7531 177.381 52.2985L180.692 45.3341L171.634 26.4862C171.471 26.1615 171.39 25.7881 171.39 25.366C171.39 24.6192 171.699 23.9861 172.315 23.4666C172.965 22.9471 173.695 22.6874 174.507 22.6874C175.059 22.6874 175.562 22.8335 176.017 23.1257C176.471 23.3854 176.829 23.8075 177.088 24.392L183.907 39.4411L190.676 24.4407Z" fill="#4A4A4A"/>
<path d="M208.235 47.3796C204.696 47.3796 201.838 46.6815 199.663 45.2854C198.624 44.6685 198.105 43.7918 198.105 42.6555C198.105 42.0061 198.283 41.4866 198.64 41.097C198.997 40.6749 199.436 40.4638 199.955 40.4638C200.507 40.4638 201.27 40.7236 202.244 41.2431C203.283 41.7301 204.225 42.1035 205.069 42.3632C205.946 42.623 207.05 42.7529 208.381 42.7529C209.744 42.7529 210.8 42.5256 211.546 42.071C212.326 41.6165 212.715 40.9833 212.715 40.1716C212.715 39.6197 212.553 39.1813 212.228 38.8567C211.936 38.532 211.384 38.2398 210.572 37.98C209.793 37.6878 208.592 37.3631 206.968 37.006C204.079 36.4215 202.001 35.5936 200.734 34.5221C199.501 33.4507 198.884 31.9734 198.884 30.0902C198.884 28.6616 199.306 27.3791 200.15 26.2427C200.994 25.0738 202.147 24.1809 203.608 23.564C205.101 22.9147 206.79 22.59 208.673 22.59C210.037 22.59 211.352 22.7686 212.618 23.1257C213.884 23.4504 215.021 23.9374 216.027 24.5868C217.066 25.2362 217.586 26.0966 217.586 27.168C217.586 27.8174 217.407 28.3694 217.05 28.8239C216.693 29.246 216.254 29.4571 215.735 29.4571C215.378 29.4571 215.021 29.3921 214.663 29.2622C214.339 29.0999 213.917 28.8726 213.397 28.5804C212.456 28.0934 211.644 27.7362 210.962 27.509C210.28 27.2492 209.436 27.1193 208.429 27.1193C207.228 27.1193 206.27 27.3628 205.556 27.8499C204.874 28.3369 204.533 29.0025 204.533 29.8467C204.533 30.6584 204.89 31.2753 205.605 31.6974C206.319 32.1195 207.699 32.5416 209.744 32.9636C211.92 33.4182 213.624 33.9377 214.858 34.5221C216.092 35.1066 216.969 35.8371 217.488 36.7137C218.04 37.5904 218.316 38.7105 218.316 40.0742C218.316 42.2821 217.391 44.0516 215.54 45.3828C213.722 46.714 211.287 47.3796 208.235 47.3796Z" fill="#4A4A4A"/>
<path d="M235.385 42.7529C237.008 42.8503 237.82 43.5808 237.82 44.9445C237.82 45.7237 237.495 46.3244 236.846 46.7465C236.229 47.1361 235.336 47.2984 234.167 47.2335L232.852 47.1361C227.398 46.7465 224.67 43.8243 224.67 38.3696V27.7525H222.235C221.359 27.7525 220.677 27.5577 220.19 27.168C219.735 26.7784 219.508 26.2102 219.508 25.4634C219.508 24.7167 219.735 24.1485 220.19 23.7589C220.677 23.3692 221.359 23.1744 222.235 23.1744H224.67V18.6938C224.67 17.8171 224.946 17.1191 225.498 16.5996C226.05 16.0801 226.797 15.8203 227.739 15.8203C228.648 15.8203 229.378 16.0801 229.93 16.5996C230.482 17.1191 230.758 17.8171 230.758 18.6938V23.1744H234.898C235.774 23.1744 236.44 23.3692 236.895 23.7589C237.382 24.1485 237.625 24.7167 237.625 25.4634C237.625 26.2102 237.382 26.7784 236.895 27.168C236.44 27.5577 235.774 27.7525 234.898 27.7525H230.758V38.8079C230.758 41.2106 231.862 42.4931 234.07 42.6555L235.385 42.7529Z" fill="#4A4A4A"/>
<path d="M251.317 22.59C254.629 22.59 257.081 23.4179 258.672 25.0738C260.295 26.6972 261.107 29.1811 261.107 32.5253V44.4087C261.107 45.2854 260.847 45.9835 260.327 46.503C259.808 46.99 259.094 47.2335 258.184 47.2335C257.34 47.2335 256.642 46.9737 256.09 46.4543C255.571 45.9348 255.311 45.2529 255.311 44.4087V43.3373C254.759 44.6036 253.882 45.5938 252.681 46.3081C251.512 47.0225 250.149 47.3796 248.59 47.3796C246.999 47.3796 245.554 47.0549 244.256 46.4056C242.957 45.7562 241.934 44.8633 241.187 43.7269C240.441 42.5905 240.067 41.3242 240.067 39.9281C240.067 38.1748 240.505 36.7949 241.382 35.7884C242.291 34.7819 243.752 34.0513 245.765 33.5968C247.778 33.1422 250.554 32.9149 254.093 32.9149H255.311V31.7948C255.311 30.2038 254.97 29.0512 254.288 28.3369C253.606 27.5901 252.503 27.2167 250.977 27.2167C250.035 27.2167 249.077 27.3628 248.103 27.6551C247.129 27.9148 245.976 28.3044 244.645 28.8239C243.801 29.246 243.184 29.4571 242.794 29.4571C242.21 29.4571 241.723 29.246 241.333 28.8239C240.976 28.4018 240.798 27.8499 240.798 27.168C240.798 26.6161 240.928 26.1453 241.187 25.7557C241.48 25.3336 241.95 24.944 242.6 24.5868C243.736 23.9699 245.084 23.4829 246.642 23.1257C248.233 22.7686 249.791 22.59 251.317 22.59ZM249.808 42.9964C251.431 42.9964 252.746 42.4606 253.753 41.3892C254.792 40.2853 255.311 38.8729 255.311 37.1521V36.1293H254.434C252.259 36.1293 250.571 36.2267 249.369 36.4215C248.168 36.6163 247.308 36.9573 246.788 37.4443C246.269 37.9313 246.009 38.5969 246.009 39.4411C246.009 40.4801 246.366 41.3405 247.08 42.0223C247.827 42.6717 248.736 42.9964 249.808 42.9964Z" fill="#4A4A4A"/>
<path d="M280.59 22.6874C281.434 22.6225 282.099 22.801 282.586 23.2231C283.073 23.6452 283.317 24.2784 283.317 25.1225C283.317 25.9992 283.106 26.6485 282.684 27.0706C282.262 27.4927 281.499 27.7687 280.395 27.8986L278.934 28.0447C277.018 28.2395 275.606 28.8889 274.697 29.9928C273.82 31.0967 273.382 32.4766 273.382 34.1325V44.36C273.382 45.3016 273.089 46.0322 272.505 46.5517C271.921 47.0387 271.19 47.2822 270.313 47.2822C269.437 47.2822 268.706 47.0387 268.122 46.5517C267.57 46.0322 267.294 45.3016 267.294 44.36V25.5122C267.294 24.603 267.57 23.905 268.122 23.4179C268.706 22.9309 269.42 22.6874 270.265 22.6874C271.109 22.6874 271.791 22.9309 272.31 23.4179C272.83 23.8725 273.089 24.5381 273.089 25.4147V27.3628C273.706 25.9342 274.615 24.8303 275.817 24.0511C277.051 23.2718 278.414 22.8335 279.908 22.7361L280.59 22.6874Z" fill="#4A4A4A"/>
<path d="M300.496 42.7529C302.119 42.8503 302.931 43.5808 302.931 44.9445C302.931 45.7237 302.606 46.3244 301.957 46.7465C301.34 47.1361 300.447 47.2984 299.278 47.2335L297.963 47.1361C292.509 46.7465 289.781 43.8243 289.781 38.3696V27.7525H287.346C286.47 27.7525 285.788 27.5577 285.301 27.168C284.846 26.7784 284.619 26.2102 284.619 25.4634C284.619 24.7167 284.846 24.1485 285.301 23.7589C285.788 23.3692 286.47 23.1744 287.346 23.1744H289.781V18.6938C289.781 17.8171 290.057 17.1191 290.609 16.5996C291.161 16.0801 291.908 15.8203 292.85 15.8203C293.759 15.8203 294.489 16.0801 295.041 16.5996C295.593 17.1191 295.869 17.8171 295.869 18.6938V23.1744H300.009C300.886 23.1744 301.551 23.3692 302.006 23.7589C302.493 24.1485 302.736 24.7167 302.736 25.4634C302.736 26.2102 302.493 26.7784 302.006 27.168C301.551 27.5577 300.886 27.7525 300.009 27.7525H295.869V38.8079C295.869 41.2106 296.973 42.4931 299.181 42.6555L300.496 42.7529Z" fill="#4A4A4A"/>
<path d="M324.952 40.4638C325.504 40.4638 325.942 40.6749 326.267 41.097C326.624 41.5191 326.802 42.0873 326.802 42.8016C326.802 43.8081 326.202 44.6523 325 45.3341C323.896 45.951 322.646 46.4543 321.25 46.8439C319.854 47.201 318.523 47.3796 317.257 47.3796C313.425 47.3796 310.389 46.2757 308.149 44.0678C305.909 41.86 304.789 38.8404 304.789 35.0092C304.789 32.574 305.276 30.4149 306.25 28.5317C307.224 26.6485 308.587 25.1875 310.341 24.1485C312.127 23.1095 314.14 22.59 316.38 22.59C318.523 22.59 320.39 23.0608 321.981 24.0024C323.572 24.944 324.805 26.2752 325.682 27.996C326.559 29.7168 326.997 31.7461 326.997 34.0838C326.997 35.4799 326.38 36.178 325.146 36.178H310.779C310.974 38.4183 311.607 40.0742 312.678 41.1457C313.75 42.1847 315.308 42.7042 317.354 42.7042C318.393 42.7042 319.302 42.5743 320.081 42.3145C320.893 42.0548 321.802 41.6976 322.809 41.2431C323.783 40.7236 324.497 40.4638 324.952 40.4638ZM316.526 26.8758C314.87 26.8758 313.539 27.3953 312.532 28.4343C311.558 29.4733 310.974 30.9668 310.779 32.9149H321.786C321.721 30.9344 321.234 29.4408 320.325 28.4343C319.416 27.3953 318.149 26.8758 316.526 26.8758Z" fill="#4A4A4A"/>
<path d="M345.273 22.6874C346.117 22.6225 346.782 22.801 347.269 23.2231C347.756 23.6452 348 24.2784 348 25.1225C348 25.9992 347.789 26.6485 347.367 27.0706C346.945 27.4927 346.182 27.7687 345.078 27.8986L343.617 28.0447C341.701 28.2395 340.289 28.8889 339.38 29.9928C338.503 31.0967 338.065 32.4766 338.065 34.1325V44.36C338.065 45.3016 337.772 46.0322 337.188 46.5517C336.604 47.0387 335.873 47.2822 334.996 47.2822C334.12 47.2822 333.389 47.0387 332.805 46.5517C332.253 46.0322 331.977 45.3016 331.977 44.36V25.5122C331.977 24.603 332.253 23.905 332.805 23.4179C333.389 22.9309 334.104 22.6874 334.948 22.6874C335.792 22.6874 336.474 22.9309 336.993 23.4179C337.513 23.8725 337.772 24.5381 337.772 25.4147V27.3628C338.389 25.9342 339.298 24.8303 340.5 24.0511C341.734 23.2718 343.097 22.8335 344.591 22.7361L345.273 22.6874Z" fill="#4A4A4A"/>
<path d="M9 20.5285C9 13.0569 15.0569 7 22.5285 7H50.2619C57.7335 7 63.7904 13.0569 63.7904 20.5285V48.2619C63.7904 55.7335 57.7335 61.7904 50.2619 61.7904H22.5285C15.0569 61.7904 9 55.7335 9 48.2619V20.5285Z" fill="#2D89EF"/>
<path d="M42.3484 34.1438L30.7278 23V45.2876L42.3484 34.1438Z" fill="white"/>
</svg>
